<?xml version="1.0" standalone="no"?>
<!DOCTYPE svg PUBLIC "-//W3C//DTD SVG 20010904//EN"
 "http://www.w3.org/TR/2001/REC-SVG-20010904/DTD/svg10.dtd">
<svg version="1.0" xmlns="http://www.w3.org/2000/svg"
 width="512.000000pt" height="512.000000pt" viewBox="0 0 512.000000 512.000000"
 preserveAspectRatio="xMidYMid meet">
<metadata>
Created by potrace 1.11, written by Peter Selinger 2001-2013
</metadata>
<g transform="translate(0.000000,512.000000) scale(0.100000,-0.100000)"
fill="#000000" stroke="none">
<path d="M4935 4604 c-47 -48 -168 -248 -225 -375 -74 -164 -142 -397 -155
-530 -3 -31 -8 -67 -11 -80 -3 -13 -7 -239 -8 -502 -3 -456 -2 -480 16 -517
25 -51 77 -82 139 -86 49 -2 72 -10 65 -22 -2 -4 -7 -52 -11 -107 -4 -55 -8
-106 -10 -115 -1 -8 -6 -60 -10 -115 -3 -55 -8 -116 -10 -135 -2 -19 -6 -87
-10 -150 -3 -63 -8 -131 -10 -150 -2 -19 -7 -91 -10 -160 -4 -69 -8 -145 -10
-170 -11 -158 -19 -358 -19 -505 -1 -170 -1 -170 30 -236 68 -143 207 -188
320 -103 38 29 93 118 102 167 9 41 7 263 -2 447 -4 80 -9 181 -11 225 -2 44
-7 116 -10 160 -3 44 -8 116 -10 160 -6 109 -18 272 -30 420 -3 33 -8 92 -10
130 -3 39 -8 88 -11 110 -3 22 -7 519 -9 1105 -4 1257 -1 1115 -21 1134 -20
20 -38 20 -59 0z"/>
<path d="M114 4429 c-44 -16 -47 -27 -59 -234 -4 -60 -8 -130 -10 -155 -2 -25
-6 -94 -10 -155 -3 -60 -8 -132 -10 -160 -12 -154 -19 -313 -19 -410 1 -89 5
-121 22 -165 29 -72 92 -156 151 -199 126 -94 155 -141 156 -251 0 -65 -7
-170 -20 -290 -2 -19 -7 -67 -10 -105 -3 -39 -8 -84 -10 -100 -2 -17 -6 -77
-10 -135 -3 -58 -8 -125 -10 -150 -2 -25 -7 -92 -10 -150 -3 -58 -8 -121 -10
-140 -2 -19 -7 -98 -10 -175 -4 -77 -8 -160 -10 -185 -2 -25 -7 -128 -11 -230
-4 -102 -8 -196 -8 -210 -8 -169 106 -330 234 -330 70 0 153 57 191 129 50 97
53 168 24 661 -2 41 -7 127 -10 190 -4 63 -8 140 -10 170 -11 176 -17 260 -20
299 -2 24 -7 94 -11 155 -3 61 -8 113 -9 116 -2 3 -6 50 -10 105 -4 55 -8 102
-10 105 -6 9 -19 215 -19 280 1 97 40 160 144 231 80 53 140 139 171 242 21
68 22 129 4 402 -2 28 -6 95 -9 150 -8 129 -16 253 -21 335 -2 36 -7 114 -10
174 -4 60 -8 118 -11 129 -6 36 -35 57 -75 57 -46 0 -72 -31 -72 -88 0 -42 13
-333 18 -396 10 -118 20 -410 16 -464 -1 -27 -54 -62 -85 -56 -58 10 -85 49
-83 119 0 17 -3 161 -7 320 -4 160 -9 337 -10 395 -2 58 -6 115 -10 126 -8 27
-59 53 -91 46 -27 -5 -58 -35 -62 -60 -4 -23 -11 -239 -18 -582 -6 -237 -9
-291 -23 -320 -21 -42 -60 -55 -108 -35 -34 14 -44 33 -46 90 -1 31 12 330 17
400 6 75 19 360 19 412 -1 75 -43 114 -100 92z"/>
<path d="M2370 4329 c-363 -65 -665 -217 -912 -462 -334 -330 -511 -749 -509
-1207 1 -80 3 -158 5 -175 12 -103 21 -151 42 -237 150 -604 635 -1091 1234
-1238 199 -49 471 -62 660 -33 769 118 1358 733 1439 1503 12 105 7 330 -9
430 -56 362 -219 680 -484 946 -257 258 -561 413 -930 475 -148 25 -391 24
-536 -2z"/>
</g>
</svg>
